<?xml version="1.0" standalone="no"?>
<!DOCTYPE svg PUBLIC "-//W3C//DTD SVG 20010904//EN"
 "http://www.w3.org/TR/2001/REC-SVG-20010904/DTD/svg10.dtd">
<svg version="1.0" xmlns="http://www.w3.org/2000/svg"
 width="303.000000pt" height="302.000000pt" viewBox="0 0 303.000000 302.000000"
 preserveAspectRatio="xMidYMid meet">

<g transform="translate(0.000000,302.000000) scale(0.100000,-0.100000)"
fill="#ffffff" stroke="#000000">
<path d="M1375 2785 c-94 -21 -302 -83 -366 -109 -264 -107 -466 -306 -586
-578 -56 -127 -92 -259 -99 -368 -12 -158 30 -443 85 -590 26 -69 99 -194 141
-240 28 -32 28 -29 -8 25 -62 94 -91 158 -117 258 -43 165 -58 274 -59 437
l-1 155 42 125 c82 243 168 387 316 526 49 46 94 84 99 84 5 0 -25 -37 -67
-82 -136 -146 -279 -380 -334 -544 -34 -101 -38 -136 -18 -153 18 -14 27 -4
27 31 0 44 44 167 99 276 107 210 218 365 323 454 48 40 50 41 89 29 22 -7 54
-25 72 -41 l32 -28 0 -639 c0 -587 -1 -641 -17 -670 -19 -34 -47 -48 -78 -38
-11 4 -37 39 -61 86 -23 44 -53 88 -67 99 -52 42 -140 12 -162 -55 -15 -46 -7
-89 26 -132 42 -56 89 -73 197 -73 80 0 100 4 144 26 90 44 159 125 204 239
23 60 23 63 29 590 7 579 7 581 65 619 17 11 55 21 92 24 53 4 63 8 63 23 0
18 -15 19 -262 21 l-263 3 64 38 c145 86 337 120 555 99 173 -17 260 -42 411
-117 78 -38 118 -54 100 -39 -51 42 -266 143 -348 164 -83 21 -211 39 -287 41
-41 1 -42 2 -15 9 130 33 406 -17 590 -107 39 -18 61 -26 50 -17 -11 9 -51 31
-90 49 -189 88 -446 126 -610 90z"/>
<path d="M1561 2543 c-8 -15 -26 -57 -41 -93 -15 -36 -73 -172 -129 -303
l-101 -238 0 -122 0 -122 117 273 c65 149 120 272 123 272 3 0 97 -219 209
-487 222 -534 236 -579 190 -621 -12 -12 -39 -24 -58 -28 -59 -10 -71 -15 -71
-30 0 -12 45 -14 290 -14 202 0 290 -3 290 -11 0 -23 -108 -167 -180 -240 -85
-87 -202 -167 -346 -236 -65 -32 -92 -49 -79 -51 46 -9 32 -21 -41 -39 -63
-14 -118 -18 -264 -17 -166 0 -195 3 -280 26 -95 26 -227 83 -307 133 -70 43
-49 20 29 -31 272 -181 606 -221 945 -113 360 115 621 385 748 774 73 225 73
489 0 730 -23 76 -113 268 -136 290 -6 5 9 -30 34 -80 102 -206 132 -334 131
-565 0 -133 -4 -182 -22 -251 -40 -164 -172 -423 -258 -509 -30 -29 -26 -22
21 47 65 96 121 211 163 338 52 158 66 245 66 415 0 182 -18 267 -88 416 -40
85 -120 214 -132 214 -3 0 4 -13 16 -30 37 -52 108 -212 130 -295 31 -110 38
-334 16 -460 -20 -116 -55 -238 -101 -347 -34 -80 -38 -86 -58 -78 -12 5 -39
11 -60 15 -49 8 -97 51 -135 122 -17 32 -108 243 -202 468 -95 226 -193 462
-220 525 -27 63 -73 174 -102 245 -42 100 -59 131 -74 133 -14 2 -24 -6 -33
-25z"/>
<path d="M1362 926 c-14 -76 -15 -86 -3 -86 5 0 12 15 15 34 7 38 32 64 46 50
5 -5 5 -25 1 -47 -7 -28 -6 -37 4 -37 14 0 30 83 20 101 -4 6 -18 8 -32 4 -23
-5 -25 -4 -19 20 4 17 2 25 -7 25 -9 0 -18 -23 -25 -64z"/>
<path d="M1677 983 c-10 -17 -28 -123 -22 -133 15 -25 31 -8 30 33 0 23 3 57
7 75 7 28 -3 45 -15 25z"/>
<path d="M1737 983 c-10 -17 -28 -123 -22 -133 15 -25 31 -8 30 33 0 23 3 57
7 75 7 28 -3 45 -15 25z"/>
<path d="M1950 975 c0 -8 5 -15 10 -15 6 0 10 7 10 15 0 8 -4 15 -10 15 -5 0
-10 -7 -10 -15z"/>
<path d="M857 973 c-3 -5 -8 -27 -12 -50 -8 -50 -28 -71 -49 -54 -11 9 -16 9
-21 0 -14 -21 35 -38 62 -21 23 14 53 132 34 132 -5 0 -12 -3 -14 -7z"/>
<path d="M1536 910 c-27 -51 -33 -70 -23 -70 8 0 17 7 21 15 3 9 18 15 36 15
20 0 30 -5 30 -15 0 -8 6 -15 13 -15 10 0 11 14 4 70 -8 55 -13 70 -26 70 -10
0 -31 -27 -55 -70z m54 10 c0 -20 -5 -30 -15 -30 -18 0 -19 14 -3 40 17 26 18
25 18 -10z"/>
<path d="M909 929 c-24 -24 -22 -67 4 -83 26 -16 71 12 75 47 6 54 -40 75 -79
36z m57 -13 c7 -19 -13 -56 -30 -56 -19 0 -25 20 -15 48 9 25 37 30 45 8z"/>
<path d="M1032 938 c-19 -19 -14 -38 14 -48 32 -12 21 -34 -13 -25 -18 4 -24
2 -21 -7 6 -18 46 -22 64 -8 21 18 17 39 -11 52 -25 11 -24 34 2 24 21 -8 39
4 22 15 -20 12 -43 11 -57 -3z"/>
<path d="M1131 931 c-25 -25 -27 -63 -6 -81 16 -13 65 -6 65 10 0 6 -11 8 -24
4 -13 -3 -27 -1 -30 5 -5 7 2 11 17 11 29 0 50 22 45 47 -5 26 -43 28 -67 4z
m49 -11 c0 -12 -28 -25 -36 -17 -9 9 6 27 22 27 8 0 14 -5 14 -10z"/>
<path d="M1230 891 c-6 -31 -14 -64 -17 -75 -3 -12 -1 -17 8 -14 8 3 15 14 17
26 3 18 8 20 31 16 22 -5 32 -1 45 17 19 28 21 63 4 76 -7 6 -27 10 -45 10
-31 0 -33 -2 -43 -56z m73 27 c7 -20 -11 -58 -28 -58 -21 0 -29 24 -15 49 12
23 35 28 43 9z"/>
<path d="M1780 895 c0 -65 22 -76 40 -20 6 19 16 35 21 35 5 0 9 -16 9 -35 0
-52 22 -43 47 20 25 65 13 74 -16 13 l-19 -43 -1 43 c-1 52 -14 54 -40 5 l-20
-38 -1 38 c0 20 -4 37 -10 37 -5 0 -10 -25 -10 -55z"/>
<path d="M1931 899 c-6 -29 -9 -54 -6 -57 11 -11 24 14 30 61 10 65 -10 62
-24 -4z"/>
<path d="M1996 941 c-2 -3 -7 -27 -11 -53 -8 -55 9 -68 19 -14 7 38 32 64 46
50 5 -5 5 -25 1 -47 -7 -28 -6 -37 4 -37 14 0 31 83 20 100 -6 10 -73 11 -79
1z"/>
</g>
</svg>
